<svg width="30" height="30" viewBox="0 0 30 30" fill="none" xmlns="http://www.w3.org/2000/svg">
<rect width="30" height="30" rx="4" fill="#7A55B6"/>
<path d="M21.8487 7.96856C21.7692 7.88894 21.6747 7.82578 21.5708 7.78268C21.4669 7.73959 21.3555 7.71741 21.2429 7.71741C21.1304 7.71741 21.019 7.73959 20.9151 7.78268C20.8112 7.82578 20.7167 7.88894 20.6372 7.96856L12.5744 16.0371L9.36295 12.8257C9.04295 12.5057 8.47152 12.5057 8.15152 12.8257L6.06581 14.9171C5.98564 14.9963 5.92199 15.0906 5.87855 15.1946C5.83511 15.2986 5.81274 15.4102 5.81274 15.5228C5.81274 15.6355 5.83511 15.7471 5.87855 15.8511C5.92199 15.955 5.98564 16.0494 6.06581 16.1286L11.9687 22.0314C12.1344 22.1971 12.3515 22.2828 12.5744 22.2828C12.7915 22.2828 13.0087 22.1971 13.1801 22.0314L23.9344 11.2714C24.2715 10.94 24.2715 10.3971 23.9344 10.06L21.8487 7.96856Z" fill="white"/>
</svg>
