<svg xmlns="http://www.w3.org/2000/svg">
    
    <symbol id="logo" viewBox="0 0 145 30" fill="none">
        <path d="M8.381 23C7.41433 23 6.54433 22.7583 5.771 22.275C4.99767 21.7723 4.38867 21.0957 3.944 20.245C3.49933 19.3943 3.277 18.4373 3.277 17.374V3.541C3.277 3.11567 3.41233 2.76767 3.683 2.497C3.95367 2.22633 4.30167 2.091 4.727 2.091C5.15233 2.091 5.50033 2.22633 5.771 2.497C6.04167 2.76767 6.177 3.11567 6.177 3.541V17.374C6.177 18.1473 6.38967 18.795 6.815 19.317C7.24033 19.839 7.76233 20.1 8.381 20.1H9.367C9.715 20.1 10.005 20.2353 10.237 20.506C10.4883 20.7767 10.614 21.1247 10.614 21.55C10.614 21.9753 10.4497 22.3233 10.121 22.594C9.81167 22.8647 9.40567 23 8.903 23H8.381ZM1.943 10.211C1.537 10.211 1.20833 10.095 0.957 9.863C0.705667 9.631 0.58 9.341 0.58 8.993C0.58 8.60633 0.705667 8.297 0.957 8.065C1.20833 7.833 1.537 7.717 1.943 7.717H8.642C9.048 7.717 9.37667 7.833 9.628 8.065C9.87933 8.297 10.005 8.60633 10.005 8.993C10.005 9.341 9.87933 9.631 9.628 9.863C9.37667 10.095 9.048 10.211 8.642 10.211H1.943ZM15.6706 13.082C15.6706 11.922 15.951 10.8877 16.5116 9.979C17.0916 9.051 17.865 8.31633 18.8316 7.775C19.7983 7.23367 20.8616 6.963 22.0216 6.963C23.1816 6.963 24.042 7.15633 24.6026 7.543C25.1826 7.91033 25.405 8.355 25.2696 8.877C25.2116 9.14767 25.0956 9.36033 24.9216 9.515C24.767 9.65033 24.5833 9.73733 24.3706 9.776C24.158 9.81467 23.926 9.805 23.6746 9.747C22.4373 9.49567 21.3256 9.47633 20.3396 9.689C19.3536 9.90167 18.5706 10.298 17.9906 10.878C17.43 11.458 17.1496 12.1927 17.1496 13.082H15.6706ZM15.6996 23C15.2356 23 14.878 22.884 14.6266 22.652C14.3753 22.4007 14.2496 22.0333 14.2496 21.55V8.587C14.2496 8.123 14.3753 7.76533 14.6266 7.514C14.878 7.26267 15.2356 7.137 15.6996 7.137C16.183 7.137 16.5406 7.26267 16.7726 7.514C17.024 7.746 17.1496 8.10367 17.1496 8.587V21.55C17.1496 22.014 17.024 22.3717 16.7726 22.623C16.5406 22.8743 16.183 23 15.6996 23ZM34.645 23.116C33.0404 23.116 31.6097 22.7777 30.353 22.101C29.1157 21.405 28.1394 20.4577 27.424 19.259C26.728 18.041 26.38 16.649 26.38 15.083C26.38 13.4977 26.7087 12.1057 27.366 10.907C28.0427 9.689 28.9707 8.74167 30.15 8.065C31.3294 7.369 32.6827 7.021 34.21 7.021C35.718 7.021 37.0134 7.35933 38.096 8.036C39.1787 8.69333 40.0004 9.61167 40.561 10.791C41.141 11.951 41.431 13.2947 41.431 14.822C41.431 15.1893 41.3054 15.4987 41.054 15.75C40.8027 15.982 40.4837 16.098 40.097 16.098H28.41V13.778H40.01L38.821 14.59C38.8017 13.6233 38.6084 12.763 38.241 12.009C37.8737 11.2357 37.3517 10.6267 36.675 10.182C35.9984 9.73733 35.1767 9.515 34.21 9.515C33.108 9.515 32.1607 9.75667 31.368 10.24C30.5947 10.7233 30.005 11.3903 29.599 12.241C29.193 13.0723 28.99 14.0197 28.99 15.083C28.99 16.1463 29.2317 17.0937 29.715 17.925C30.1984 18.7563 30.8654 19.4137 31.716 19.897C32.5667 20.3803 33.543 20.622 34.645 20.622C35.2444 20.622 35.8534 20.5157 36.472 20.303C37.11 20.071 37.6224 19.81 38.009 19.52C38.299 19.3073 38.6084 19.201 38.937 19.201C39.285 19.1817 39.5847 19.2783 39.836 19.491C40.1647 19.781 40.3387 20.1 40.358 20.448C40.3774 20.796 40.2227 21.0957 39.894 21.347C39.2367 21.869 38.415 22.2943 37.429 22.623C36.4624 22.9517 35.5344 23.116 34.645 23.116ZM52.0903 23.116C50.4857 23.116 49.055 22.7777 47.7983 22.101C46.561 21.405 45.5847 20.4577 44.8693 19.259C44.1733 18.041 43.8253 16.649 43.8253 15.083C43.8253 13.4977 44.154 12.1057 44.8113 10.907C45.488 9.689 46.416 8.74167 47.5953 8.065C48.7747 7.369 50.128 7.021 51.6553 7.021C53.1633 7.021 54.4587 7.35933 55.5413 8.036C56.624 8.69333 57.4457 9.61167 58.0063 10.791C58.5863 11.951 58.8763 13.2947 58.8763 14.822C58.8763 15.1893 58.7507 15.4987 58.4993 15.75C58.248 15.982 57.929 16.098 57.5423 16.098H45.8553V13.778H57.4553L56.2663 14.59C56.247 13.6233 56.0537 12.763 55.6863 12.009C55.319 11.2357 54.797 10.6267 54.1203 10.182C53.4437 9.73733 52.622 9.515 51.6553 9.515C50.5533 9.515 49.606 9.75667 48.8133 10.24C48.04 10.7233 47.4503 11.3903 47.0443 12.241C46.6383 13.0723 46.4353 14.0197 46.4353 15.083C46.4353 16.1463 46.677 17.0937 47.1603 17.925C47.6437 18.7563 48.3107 19.4137 49.1613 19.897C50.012 20.3803 50.9883 20.622 52.0903 20.622C52.6897 20.622 53.2987 20.5157 53.9173 20.303C54.5553 20.071 55.0677 19.81 55.4543 19.52C55.7443 19.3073 56.0537 19.201 56.3823 19.201C56.7303 19.1817 57.03 19.2783 57.2813 19.491C57.61 19.781 57.784 20.1 57.8033 20.448C57.8227 20.796 57.668 21.0957 57.3393 21.347C56.682 21.869 55.8603 22.2943 54.8743 22.623C53.9077 22.9517 52.9797 23.116 52.0903 23.116ZM64.1281 29.786C63.7027 29.786 63.3451 29.641 63.0551 29.351C62.7844 29.0803 62.6491 28.7323 62.6491 28.307V15.083C62.6684 13.5557 63.0261 12.183 63.7221 10.965C64.4181 9.747 65.3654 8.79 66.5641 8.094C67.7627 7.37867 69.1161 7.021 70.6241 7.021C72.1514 7.021 73.5144 7.37867 74.7131 8.094C75.9117 8.79 76.8591 9.747 77.5551 10.965C78.2704 12.183 78.6281 13.5557 78.6281 15.083C78.6281 16.6103 78.2994 17.983 77.6421 19.201C77.0041 20.3997 76.1244 21.3567 75.0031 22.072C73.8817 22.768 72.6154 23.116 71.2041 23.116C70.0634 23.116 69.0097 22.884 68.0431 22.42C67.0957 21.9367 66.2837 21.289 65.6071 20.477V28.307C65.6071 28.7323 65.4717 29.0803 65.2011 29.351C64.9304 29.641 64.5727 29.786 64.1281 29.786ZM70.6241 20.506C71.6101 20.506 72.4897 20.274 73.2631 19.81C74.0364 19.3267 74.6454 18.679 75.0901 17.867C75.5541 17.0357 75.7861 16.1077 75.7861 15.083C75.7861 14.039 75.5541 13.111 75.0901 12.299C74.6454 11.4677 74.0364 10.82 73.2631 10.356C72.4897 9.87267 71.6101 9.631 70.6241 9.631C69.6574 9.631 68.7777 9.87267 67.9851 10.356C67.2117 10.82 66.6027 11.4677 66.1581 12.299C65.7134 13.111 65.4911 14.039 65.4911 15.083C65.4911 16.1077 65.7134 17.0357 66.1581 17.867C66.6027 18.679 67.2117 19.3267 67.9851 19.81C68.7777 20.274 69.6574 20.506 70.6241 20.506ZM86.8097 23C85.959 23 85.205 22.768 84.5477 22.304C83.8904 21.84 83.378 21.2117 83.0107 20.419C82.6434 19.607 82.4597 18.679 82.4597 17.635V1.801C82.4597 1.37567 82.595 1.02767 82.8657 0.756999C83.1364 0.486333 83.4844 0.350999 83.9097 0.350999C84.335 0.350999 84.683 0.486333 84.9537 0.756999C85.2244 1.02767 85.3597 1.37567 85.3597 1.801V17.635C85.3597 18.3503 85.495 18.94 85.7657 19.404C86.0364 19.868 86.3844 20.1 86.8097 20.1H87.5347C87.9214 20.1 88.2307 20.2353 88.4627 20.506C88.714 20.7767 88.8397 21.1247 88.8397 21.55C88.8397 21.9753 88.656 22.3233 88.2887 22.594C87.9214 22.8647 87.4477 23 86.8677 23H86.8097ZM98.3091 23.116C96.7044 23.116 95.2738 22.7777 94.0171 22.101C92.7798 21.405 91.8034 20.4577 91.0881 19.259C90.3921 18.041 90.0441 16.649 90.0441 15.083C90.0441 13.4977 90.3728 12.1057 91.0301 10.907C91.7068 9.689 92.6348 8.74167 93.8141 8.065C94.9934 7.369 96.3468 7.021 97.8741 7.021C99.3821 7.021 100.677 7.35933 101.76 8.036C102.843 8.69333 103.664 9.61167 104.225 10.791C104.805 11.951 105.095 13.2947 105.095 14.822C105.095 15.1893 104.969 15.4987 104.718 15.75C104.467 15.982 104.148 16.098 103.761 16.098H92.0741V13.778H103.674L102.485 14.59C102.466 13.6233 102.272 12.763 101.905 12.009C101.538 11.2357 101.016 10.6267 100.339 10.182C99.6624 9.73733 98.8408 9.515 97.8741 9.515C96.7721 9.515 95.8248 9.75667 95.0321 10.24C94.2588 10.7233 93.6691 11.3903 93.2631 12.241C92.8571 13.0723 92.6541 14.0197 92.6541 15.083C92.6541 16.1463 92.8958 17.0937 93.3791 17.925C93.8624 18.7563 94.5294 19.4137 95.3801 19.897C96.2308 20.3803 97.2071 20.622 98.3091 20.622C98.9084 20.622 99.5174 20.5157 100.136 20.303C100.774 20.071 101.286 19.81 101.673 19.52C101.963 19.3073 102.272 19.201 102.601 19.201C102.949 19.1817 103.249 19.2783 103.5 19.491C103.829 19.781 104.003 20.1 104.022 20.448C104.041 20.796 103.887 21.0957 103.558 21.347C102.901 21.869 102.079 22.2943 101.093 22.623C100.126 22.9517 99.1984 23.116 98.3091 23.116Z" fill="#7A55B6"/>
        <path d="M109.709 23.464C109.167 23.464 108.694 23.2707 108.288 22.884C107.901 22.478 107.708 22.0043 107.708 21.463C107.708 20.9023 107.901 20.4287 108.288 20.042C108.694 19.636 109.167 19.433 109.709 19.433C110.269 19.433 110.743 19.636 111.13 20.042C111.516 20.4287 111.71 20.9023 111.71 21.463C111.71 22.0043 111.516 22.478 111.13 22.884C110.743 23.2707 110.269 23.464 109.709 23.464ZM118.562 17.2L116.764 15.228L125.667 7.282C125.957 7.01133 126.276 6.88567 126.624 6.905C126.991 6.92433 127.301 7.079 127.552 7.369C127.823 7.659 127.948 7.978 127.929 8.326C127.91 8.674 127.755 8.98333 127.465 9.254L118.562 17.2ZM117.199 23C116.774 23 116.426 22.8743 116.155 22.623C115.904 22.3523 115.778 22.0043 115.778 21.579V1.772C115.778 1.34667 115.904 1.00833 116.155 0.756999C116.426 0.486333 116.774 0.350999 117.199 0.350999C117.624 0.350999 117.963 0.486333 118.214 0.756999C118.485 1.00833 118.62 1.34667 118.62 1.772V21.579C118.62 22.0043 118.485 22.3523 118.214 22.623C117.963 22.8743 117.624 23 117.199 23ZM127.552 22.855C127.243 23.1063 126.895 23.2127 126.508 23.174C126.141 23.1547 125.831 22.9903 125.58 22.681L119.693 15.402L121.723 13.488L127.755 20.912C128.006 21.2213 128.113 21.5597 128.074 21.927C128.055 22.275 127.881 22.5843 127.552 22.855ZM133.797 22.449L131.825 20.709L141.685 7.688L143.628 9.428L133.797 22.449ZM132.927 23C132.018 23 131.564 22.5457 131.564 21.637C131.564 20.7283 132.018 20.274 132.927 20.274H142.816C143.724 20.274 144.179 20.7283 144.179 21.637C144.179 22.5457 143.724 23 142.816 23H132.927ZM132.637 9.863C131.728 9.863 131.274 9.40867 131.274 8.5C131.274 7.59133 131.728 7.137 132.637 7.137H142.526C143.434 7.137 143.889 7.59133 143.889 8.5C143.889 9.40867 143.434 9.863 142.526 9.863H132.637Z" fill="#FFBDC2"/>
    </symbol>

    <symbol id="logoColored" viewBox="0 0 148 30" fill="none">
        <path d="M9.599 23C9.17367 23 8.816 22.855 8.526 22.565C8.236 22.275 8.091 21.9173 8.091 21.492V0.350999H11.107V21.492C11.107 21.9173 10.962 22.275 10.672 22.565C10.382 22.855 10.0243 23 9.599 23ZM1.827 3.135C1.421 3.135 1.08267 3.00933 0.812 2.758C0.560667 2.48733 0.435 2.149 0.435 1.743C0.435 1.337 0.560667 1.00833 0.812 0.756999C1.08267 0.486333 1.421 0.350999 1.827 0.350999H17.342C17.748 0.350999 18.0767 0.486333 18.328 0.756999C18.5987 1.00833 18.734 1.337 18.734 1.743C18.734 2.149 18.5987 2.48733 18.328 2.758C18.0767 3.00933 17.748 3.135 17.342 3.135H1.827ZM19.154 13.082C19.154 11.922 19.4344 10.8877 19.995 9.979C20.575 9.051 21.3484 8.31633 22.315 7.775C23.2817 7.23367 24.345 6.963 25.505 6.963C26.665 6.963 27.5254 7.15633 28.086 7.543C28.666 7.91033 28.8884 8.355 28.753 8.877C28.695 9.14767 28.579 9.36033 28.405 9.515C28.2504 9.65033 28.0667 9.73733 27.854 9.776C27.6414 9.81467 27.4094 9.805 27.158 9.747C25.9207 9.49567 24.809 9.47633 23.823 9.689C22.837 9.90167 22.054 10.298 21.474 10.878C20.9134 11.458 20.633 12.1927 20.633 13.082H19.154ZM19.183 23C18.719 23 18.3614 22.884 18.11 22.652C17.8587 22.4007 17.733 22.0333 17.733 21.55V8.587C17.733 8.123 17.8587 7.76533 18.11 7.514C18.3614 7.26267 18.719 7.137 19.183 7.137C19.6664 7.137 20.024 7.26267 20.256 7.514C20.5074 7.746 20.633 8.10367 20.633 8.587V21.55C20.633 22.014 20.5074 22.3717 20.256 22.623C20.024 22.8743 19.6664 23 19.183 23ZM38.1284 23.116C36.5238 23.116 35.0931 22.7777 33.8364 22.101C32.5991 21.405 31.6228 20.4577 30.9074 19.259C30.2114 18.041 29.8634 16.649 29.8634 15.083C29.8634 13.4977 30.1921 12.1057 30.8494 10.907C31.5261 9.689 32.4541 8.74167 33.6334 8.065C34.8128 7.369 36.1661 7.021 37.6934 7.021C39.2014 7.021 40.4968 7.35933 41.5794 8.036C42.6621 8.69333 43.4838 9.61167 44.0444 10.791C44.6244 11.951 44.9144 13.2947 44.9144 14.822C44.9144 15.1893 44.7888 15.4987 44.5374 15.75C44.2861 15.982 43.9671 16.098 43.5804 16.098H31.8934V13.778H43.4934L42.3044 14.59C42.2851 13.6233 42.0918 12.763 41.7244 12.009C41.3571 11.2357 40.8351 10.6267 40.1584 10.182C39.4818 9.73733 38.6601 9.515 37.6934 9.515C36.5914 9.515 35.6441 9.75667 34.8514 10.24C34.0781 10.7233 33.4884 11.3903 33.0824 12.241C32.6764 13.0723 32.4734 14.0197 32.4734 15.083C32.4734 16.1463 32.7151 17.0937 33.1984 17.925C33.6818 18.7563 34.3488 19.4137 35.1994 19.897C36.0501 20.3803 37.0264 20.622 38.1284 20.622C38.7278 20.622 39.3368 20.5157 39.9554 20.303C40.5934 20.071 41.1058 19.81 41.4924 19.52C41.7824 19.3073 42.0918 19.201 42.4204 19.201C42.7684 19.1817 43.0681 19.2783 43.3194 19.491C43.6481 19.781 43.8221 20.1 43.8414 20.448C43.8608 20.796 43.7061 21.0957 43.3774 21.347C42.7201 21.869 41.8984 22.2943 40.9124 22.623C39.9458 22.9517 39.0178 23.116 38.1284 23.116ZM55.5737 23.116C53.9691 23.116 52.5384 22.7777 51.2817 22.101C50.0444 21.405 49.0681 20.4577 48.3527 19.259C47.6567 18.041 47.3087 16.649 47.3087 15.083C47.3087 13.4977 47.6374 12.1057 48.2947 10.907C48.9714 9.689 49.8994 8.74167 51.0787 8.065C52.2581 7.369 53.6114 7.021 55.1387 7.021C56.6467 7.021 57.9421 7.35933 59.0247 8.036C60.1074 8.69333 60.9291 9.61167 61.4897 10.791C62.0697 11.951 62.3597 13.2947 62.3597 14.822C62.3597 15.1893 62.2341 15.4987 61.9827 15.75C61.7314 15.982 61.4124 16.098 61.0257 16.098H49.3387V13.778H60.9387L59.7497 14.59C59.7304 13.6233 59.5371 12.763 59.1697 12.009C58.8024 11.2357 58.2804 10.6267 57.6037 10.182C56.9271 9.73733 56.1054 9.515 55.1387 9.515C54.0367 9.515 53.0894 9.75667 52.2967 10.24C51.5234 10.7233 50.9337 11.3903 50.5277 12.241C50.1217 13.0723 49.9187 14.0197 49.9187 15.083C49.9187 16.1463 50.1604 17.0937 50.6437 17.925C51.1271 18.7563 51.7941 19.4137 52.6447 19.897C53.4954 20.3803 54.4717 20.622 55.5737 20.622C56.1731 20.622 56.7821 20.5157 57.4007 20.303C58.0387 20.071 58.5511 19.81 58.9377 19.52C59.2277 19.3073 59.5371 19.201 59.8657 19.201C60.2137 19.1817 60.5134 19.2783 60.7647 19.491C61.0934 19.781 61.2674 20.1 61.2867 20.448C61.3061 20.796 61.1514 21.0957 60.8227 21.347C60.1654 21.869 59.3437 22.2943 58.3577 22.623C57.3911 22.9517 56.4631 23.116 55.5737 23.116ZM67.6115 29.786C67.1861 29.786 66.8285 29.641 66.5385 29.351C66.2678 29.0803 66.1325 28.7323 66.1325 28.307V15.083C66.1518 13.5557 66.5095 12.183 67.2055 10.965C67.9015 9.747 68.8488 8.79 70.0475 8.094C71.2461 7.37867 72.5995 7.021 74.1075 7.021C75.6348 7.021 76.9978 7.37867 78.1965 8.094C79.3951 8.79 80.3425 9.747 81.0385 10.965C81.7538 12.183 82.1115 13.5557 82.1115 15.083C82.1115 16.6103 81.7828 17.983 81.1255 19.201C80.4875 20.3997 79.6078 21.3567 78.4865 22.072C77.3651 22.768 76.0988 23.116 74.6875 23.116C73.5468 23.116 72.4931 22.884 71.5265 22.42C70.5791 21.9367 69.7671 21.289 69.0905 20.477V28.307C69.0905 28.7323 68.9551 29.0803 68.6845 29.351C68.4138 29.641 68.0561 29.786 67.6115 29.786ZM74.1075 20.506C75.0935 20.506 75.9731 20.274 76.7465 19.81C77.5198 19.3267 78.1288 18.679 78.5735 17.867C79.0375 17.0357 79.2695 16.1077 79.2695 15.083C79.2695 14.039 79.0375 13.111 78.5735 12.299C78.1288 11.4677 77.5198 10.82 76.7465 10.356C75.9731 9.87267 75.0935 9.631 74.1075 9.631C73.1408 9.631 72.2611 9.87267 71.4685 10.356C70.6951 10.82 70.0861 11.4677 69.6415 12.299C69.1968 13.111 68.9745 14.039 68.9745 15.083C68.9745 16.1077 69.1968 17.0357 69.6415 17.867C70.0861 18.679 70.6951 19.3267 71.4685 19.81C72.2611 20.274 73.1408 20.506 74.1075 20.506ZM90.2931 23C89.4424 23 88.6884 22.768 88.0311 22.304C87.3738 21.84 86.8614 21.2117 86.4941 20.419C86.1268 19.607 85.9431 18.679 85.9431 17.635V1.801C85.9431 1.37567 86.0784 1.02767 86.3491 0.756999C86.6198 0.486333 86.9678 0.350999 87.3931 0.350999C87.8184 0.350999 88.1664 0.486333 88.4371 0.756999C88.7078 1.02767 88.8431 1.37567 88.8431 1.801V17.635C88.8431 18.3503 88.9784 18.94 89.2491 19.404C89.5198 19.868 89.8678 20.1 90.2931 20.1H91.0181C91.4048 20.1 91.7141 20.2353 91.9461 20.506C92.1974 20.7767 92.3231 21.1247 92.3231 21.55C92.3231 21.9753 92.1394 22.3233 91.7721 22.594C91.4048 22.8647 90.9311 23 90.3511 23H90.2931ZM101.792 23.116C100.188 23.116 98.7572 22.7777 97.5005 22.101C96.2632 21.405 95.2868 20.4577 94.5715 19.259C93.8755 18.041 93.5275 16.649 93.5275 15.083C93.5275 13.4977 93.8562 12.1057 94.5135 10.907C95.1902 9.689 96.1182 8.74167 97.2975 8.065C98.4768 7.369 99.8302 7.021 101.357 7.021C102.865 7.021 104.161 7.35933 105.243 8.036C106.326 8.69333 107.148 9.61167 107.708 10.791C108.288 11.951 108.578 13.2947 108.578 14.822C108.578 15.1893 108.453 15.4987 108.201 15.75C107.95 15.982 107.631 16.098 107.244 16.098H95.5575V13.778H107.157L105.968 14.59C105.949 13.6233 105.756 12.763 105.388 12.009C105.021 11.2357 104.499 10.6267 103.822 10.182C103.146 9.73733 102.324 9.515 101.357 9.515C100.255 9.515 99.3082 9.75667 98.5155 10.24C97.7422 10.7233 97.1525 11.3903 96.7465 12.241C96.3405 13.0723 96.1375 14.0197 96.1375 15.083C96.1375 16.1463 96.3792 17.0937 96.8625 17.925C97.3458 18.7563 98.0128 19.4137 98.8635 19.897C99.7142 20.3803 100.69 20.622 101.792 20.622C102.392 20.622 103.001 20.5157 103.619 20.303C104.257 20.071 104.77 19.81 105.156 19.52C105.446 19.3073 105.756 19.201 106.084 19.201C106.432 19.1817 106.732 19.2783 106.983 19.491C107.312 19.781 107.486 20.1 107.505 20.448C107.525 20.796 107.37 21.0957 107.041 21.347C106.384 21.869 105.562 22.2943 104.576 22.623C103.61 22.9517 102.682 23.116 101.792 23.116ZM113.192 23.464C112.651 23.464 112.177 23.2707 111.771 22.884C111.385 22.478 111.191 22.0043 111.191 21.463C111.191 20.9023 111.385 20.4287 111.771 20.042C112.177 19.636 112.651 19.433 113.192 19.433C113.753 19.433 114.227 19.636 114.613 20.042C115 20.4287 115.193 20.9023 115.193 21.463C115.193 22.0043 115 22.478 114.613 22.884C114.227 23.2707 113.753 23.464 113.192 23.464ZM122.045 17.2L120.247 15.228L129.15 7.282C129.44 7.01133 129.759 6.88567 130.107 6.905C130.475 6.92433 130.784 7.079 131.035 7.369C131.306 7.659 131.432 7.978 131.412 8.326C131.393 8.674 131.238 8.98333 130.948 9.254L122.045 17.2ZM120.682 23C120.257 23 119.909 22.8743 119.638 22.623C119.387 22.3523 119.261 22.0043 119.261 21.579V1.772C119.261 1.34667 119.387 1.00833 119.638 0.756999C119.909 0.486333 120.257 0.350999 120.682 0.350999C121.108 0.350999 121.446 0.486333 121.697 0.756999C121.968 1.00833 122.103 1.34667 122.103 1.772V21.579C122.103 22.0043 121.968 22.3523 121.697 22.623C121.446 22.8743 121.108 23 120.682 23ZM131.035 22.855C130.726 23.1063 130.378 23.2127 129.991 23.174C129.624 23.1547 129.315 22.9903 129.063 22.681L123.176 15.402L125.206 13.488L131.238 20.912C131.49 21.2213 131.596 21.5597 131.557 21.927C131.538 22.275 131.364 22.5843 131.035 22.855ZM137.28 22.449L135.308 20.709L145.168 7.688L147.111 9.428L137.28 22.449ZM136.41 23C135.501 23 135.047 22.5457 135.047 21.637C135.047 20.7283 135.501 20.274 136.41 20.274H146.299C147.208 20.274 147.662 20.7283 147.662 21.637C147.662 22.5457 147.208 23 146.299 23H136.41ZM136.12 9.863C135.211 9.863 134.757 9.40867 134.757 8.5C134.757 7.59133 135.211 7.137 136.12 7.137H146.009C146.918 7.137 147.372 7.59133 147.372 8.5C147.372 9.40867 146.918 9.863 146.009 9.863H136.12Z" fill="currentColor"/>
    </symbol>
    
    <symbol id="phone" viewBox="0 0 16 16" fill="none">
        <path fill-rule="evenodd" clip-rule="evenodd" d="M15.7071 14.0729C15.6009 14.1788 15.4727 14.3142 15.3369 14.4575C14.9979 14.8172 14.5744 15.2645 14.309 15.4458C12.9125 16.4001 11.0442 15.9435 9.72269 15.3929C7.97937 14.6665 6.08136 13.3276 4.37716 11.6232C2.67136 9.91864 1.33261 8.02004 0.606236 6.27771C0.0562613 4.9559 -0.401311 3.08723 0.553114 1.69042C0.734355 1.42481 1.18262 1.00199 1.54191 0.662345C1.68566 0.526913 1.82002 0.39895 1.92627 0.293049C2.11489 0.105363 2.37016 0 2.63625 0C2.90234 0 3.15761 0.105363 3.34624 0.293049L5.91574 2.86181C6.10333 3.05042 6.20862 3.30562 6.20862 3.57163C6.20862 3.83765 6.10333 4.09284 5.91574 4.28146L5.21578 4.98002C4.98201 5.21208 4.82942 5.51341 4.78073 5.83918C4.73203 6.16495 4.78982 6.49773 4.94551 6.788C5.90827 8.60512 7.39459 10.0912 9.21187 11.0536C9.50208 11.2093 9.8348 11.267 10.1605 11.2182C10.4861 11.1694 10.7874 11.0168 11.0192 10.7829L11.7175 10.0844C11.9061 9.89666 12.1614 9.7913 12.4275 9.7913C12.6936 9.7913 12.9488 9.89666 13.1374 10.0844L15.7071 12.6535C15.8947 12.8421 16 13.0972 16 13.3632C16 13.6292 15.8947 13.8843 15.7071 14.0729Z" fill="currentColor"/>
    </symbol>

    <symbol id="benefits1" viewBox="0 0 60 60" fill="none">
        <g clip-path="url(#clip0_336_4431)">
            <path d="M24.1406 36.2704L29.0957 33.2973C29.3689 33.1334 29.6815 33.0468 30.0001 33.0468C30.3187 33.0468 30.6313 33.1334 30.9045 33.2973L35.8594 36.2704L41.3657 32.9667L31.7578 20.1562V10.5469H33.5156C38.3696 10.5469 42.3047 6.61184 42.3047 1.75781C42.3047 0.787031 41.5177 0 40.5469 0H30C29.0292 0 28.2422 0.787031 28.2422 1.75781V20.1562L18.6343 32.9667L24.1406 36.2704ZM59.4388 38.4709L48.8919 26.6057C48.727 26.4201 48.5247 26.2716 48.2982 26.17C48.0718 26.0683 47.8264 26.0157 47.5781 26.0157C47.3299 26.0157 47.0845 26.0683 46.858 26.17C46.6316 26.2716 46.4293 26.4201 46.2643 26.6057L43.4033 29.8242L59.8828 51.7969V39.6387C59.8828 39.2082 59.7248 38.7927 59.4388 38.4709ZM13.7357 26.6057C13.5708 26.4201 13.3685 26.2715 13.142 26.1698C12.9156 26.0681 12.6701 26.0155 12.4219 26.0155C12.1736 26.0155 11.9282 26.0681 11.7017 26.1698C11.4753 26.2715 11.273 26.4201 11.1081 26.6057L0.561212 38.4709C0.275153 38.7926 0.117151 39.2082 0.117188 39.6387V51.7969L16.5967 29.8242L13.7357 26.6057ZM35.8594 51.2109C36.8286 51.2109 37.6172 50.4224 37.6172 49.4531C37.6172 48.4839 36.8286 47.6953 35.8594 47.6953H27.6562C24.7485 47.6953 22.3828 45.3296 22.3828 42.4219V39.3156L16.5137 35.7942L0.468751 57.1875C0.272883 57.4487 0.153608 57.7592 0.124291 58.0843C0.0949744 58.4095 0.156774 58.7363 0.302766 59.0283C0.448757 59.3203 0.673172 59.5658 0.950864 59.7375C1.22856 59.9091 1.54855 60 1.875 60H28.2422V56.4844C28.2422 53.5766 30.6079 51.2109 33.5156 51.2109H35.8594Z" fill="currentColor"/>
            <path d="M43.4863 35.7942L36.7638 39.8277C36.4854 39.9947 36.1724 40.0781 35.8594 40.0781C35.5464 40.0781 35.2332 39.9947 34.9549 39.8275L30 36.8546L25.8984 39.3156V42.4218C25.8984 43.3911 26.687 44.1797 27.6562 44.1797H35.8594C38.7671 44.1797 41.1328 46.5453 41.1328 49.4531C41.1328 52.3609 38.7671 54.7265 35.8594 54.7265H33.5156C32.5464 54.7265 31.7578 55.5151 31.7578 56.4843V60H58.125C58.4514 60 58.7714 59.9091 59.0491 59.7374C59.3268 59.5658 59.5512 59.3203 59.6972 59.0283C59.8432 58.7363 59.905 58.4094 59.8757 58.0843C59.8464 57.7592 59.7271 57.4486 59.5312 57.1875L43.4863 35.7942Z" fill="currentColor"/>
        </g>
        <defs>
            <clipPath id="clip0_336_4431">
                <rect width="60" height="60" fill="white"/>
            </clipPath>
        </defs>
    </symbol>

    <symbol id="benefits2" viewBox="0 0 60 60" fill="none">
        <path d="M55.8984 12.4219H51.7969V14.1797C51.7969 17.7336 54.6882 20.625 58.2422 20.625H60V16.5234C60 14.2618 58.16 12.4219 55.8984 12.4219ZM1.75781 47.5781H0V51.6797C0 53.9413 1.83996 55.7812 4.10156 55.7812H8.20312V54.0234C8.20312 50.4695 5.31176 47.5781 1.75781 47.5781ZM8.20312 14.1797V12.4219H4.10156C1.83996 12.4219 0 14.2618 0 16.5234V20.625H1.75781C5.31176 20.625 8.20312 17.7336 8.20312 14.1797ZM51.7969 54.0234V55.7812H55.8984C58.16 55.7812 60 53.9413 60 51.6797V47.5781H58.2422C54.6882 47.5781 51.7969 50.4695 51.7969 54.0234ZM38.0551 37.5389L41.3598 36.3366L44.1653 44.0475L40.8606 45.2498L38.0551 37.5389ZM27.5085 26.1832L29.994 23.6977L32.4796 26.1832L29.994 28.6688L27.5085 26.1832Z" fill="currentColor"/>
        <path d="M17.1094 39.375C18.0802 39.375 18.8672 38.588 18.8672 37.6172C18.8672 36.6464 18.0802 35.8594 17.1094 35.8594C16.1386 35.8594 15.3516 36.6464 15.3516 37.6172C15.3516 38.588 16.1386 39.375 17.1094 39.375Z" fill="currentColor"/>
        <path d="M58.2422 24.1406C52.7497 24.1406 48.2812 19.6721 48.2812 14.1797V12.4219H41.1328V8.32031C41.1328 6.05871 39.2929 4.21875 37.0312 4.21875H22.9688C20.7071 4.21875 18.8672 6.05871 18.8672 8.32031V12.4219H11.7188V14.1797C11.7188 19.6721 7.25027 24.1406 1.75781 24.1406H0V44.0625H1.75781C7.25027 44.0625 11.7188 48.531 11.7188 54.0234V55.7812H48.2812V54.0234C48.2812 48.531 52.7497 44.0625 58.2422 44.0625H60V24.1406H58.2422ZM22.3828 8.32031C22.3828 7.99723 22.6457 7.73438 22.9688 7.73438H37.0312C37.3543 7.73438 37.6172 7.99723 37.6172 8.32031V12.4219H22.3828V8.32031ZM17.1094 42.8906C14.2016 42.8906 11.8359 40.525 11.8359 37.6172C11.8359 34.7094 14.2016 32.3438 17.1094 32.3438C20.0171 32.3438 22.3828 34.7094 22.3828 37.6172C22.3828 40.525 20.0171 42.8906 17.1094 42.8906ZM30 32.9125C29.7691 32.9128 29.5405 32.8674 29.3272 32.7791C29.1139 32.6907 28.9201 32.561 28.7571 32.3975L23.7853 27.4257C23.6221 27.2625 23.4926 27.0688 23.4042 26.8555C23.3159 26.6423 23.2704 26.4137 23.2704 26.1829C23.2704 25.952 23.3159 25.7234 23.4042 25.5102C23.4926 25.2969 23.6221 25.1032 23.7853 24.94L28.7571 19.968C28.9203 19.8048 29.114 19.6752 29.3273 19.5868C29.5406 19.4985 29.7692 19.453 30 19.453C30.2308 19.453 30.4594 19.4985 30.6727 19.5868C30.886 19.6752 31.0797 19.8048 31.2429 19.968L36.2147 24.94C36.3779 25.1032 36.5074 25.2969 36.5958 25.5102C36.6841 25.7234 36.7296 25.952 36.7296 26.1829C36.7296 26.4137 36.6841 26.6423 36.5958 26.8555C36.5074 27.0688 36.3779 27.2625 36.2147 27.4257L31.2429 32.3975C31.0799 32.561 30.8861 32.6907 30.6728 32.7791C30.4595 32.8674 30.2309 32.9128 30 32.9125ZM47.9994 45.8259C47.8024 46.2485 47.4456 46.5754 47.0075 46.735L40.4004 49.1398C40.2078 49.2101 40.0044 49.2461 39.7993 49.2462C39.0813 49.2462 38.4073 48.803 38.1475 48.0891L34.1394 37.0771C33.8074 36.1649 34.2777 35.1561 35.19 34.824L41.7971 32.4192C42.2353 32.2598 42.7187 32.2809 43.1413 32.478C43.5638 32.675 43.8907 33.0318 44.0502 33.4699L48.0582 44.482C48.2175 44.9201 48.1964 45.4035 47.9994 45.8259Z" fill="currentColor"/>
    </symbol>

    <symbol id="benefits3" viewBox="0 0 60 60" fill="none">
        <g clip-path="url(#clip0_336_4448)">
            <path d="M35.4318 40.1167C35.152 40.1167 34.8713 40.05 34.6139 39.9148L30 37.4891L25.3861 39.9148C25.0958 40.0675 24.7685 40.1358 24.4414 40.1122C24.1142 40.0886 23.8002 39.9739 23.5348 39.7811C23.2694 39.5883 23.0633 39.3251 22.9397 39.0212C22.8162 38.7174 22.7801 38.385 22.8355 38.0617L23.7168 32.924L19.984 29.2854C19.7491 29.0565 19.583 28.7664 19.5044 28.448C19.4258 28.1296 19.4379 27.7955 19.5392 27.4836C19.6405 27.1716 19.8271 26.8943 20.0779 26.6829C20.3286 26.4714 20.6335 26.3344 20.9581 26.2872L26.1167 25.5376L28.4237 20.8632C28.5689 20.569 28.7934 20.3214 29.072 20.1482C29.3506 19.9751 29.672 19.8833 30 19.8833C30.328 19.8833 30.6495 19.9751 30.928 20.1482C31.2066 20.3214 31.4311 20.569 31.5763 20.8632L33.8834 25.5376L39.042 26.2872C39.3666 26.3343 39.6715 26.4713 39.9223 26.6827C40.1731 26.8941 40.3598 27.1715 40.4611 27.4835C40.5625 27.7954 40.5745 28.1295 40.4958 28.448C40.4172 28.7664 40.251 29.0565 40.016 29.2854L36.2833 32.924L37.1645 38.0617C37.2077 38.314 37.1954 38.5728 37.1282 38.8198C37.0611 39.0668 36.9408 39.2962 36.7758 39.4919C36.6107 39.6876 36.405 39.845 36.1728 39.9529C35.9407 40.0608 35.6878 40.1167 35.4318 40.1167Z" fill="currentColor"/>
            <path d="M3.51562 33.5156C5.45725 33.5156 7.03125 31.9416 7.03125 30C7.03125 28.0584 5.45725 26.4844 3.51562 26.4844C1.574 26.4844 0 28.0584 0 30C0 31.9416 1.574 33.5156 3.51562 33.5156Z" fill="currentColor"/>
            <path d="M56.4844 33.5156C58.426 33.5156 60 31.9416 60 30C60 28.0584 58.426 26.4844 56.4844 26.4844C54.5427 26.4844 52.9688 28.0584 52.9688 30C52.9688 31.9416 54.5427 33.5156 56.4844 33.5156Z" fill="currentColor"/>
            <path d="M16.7578 56.4518C18.6994 56.4518 20.2734 54.8778 20.2734 52.9362C20.2734 50.9945 18.6994 49.4205 16.7578 49.4205C14.8162 49.4205 13.2422 50.9945 13.2422 52.9362C13.2422 54.8778 14.8162 56.4518 16.7578 56.4518Z" fill="currentColor"/>
            <path d="M43.2422 10.5795C45.1838 10.5795 46.7578 9.00547 46.7578 7.06384C46.7578 5.12222 45.1838 3.54822 43.2422 3.54822C41.3006 3.54822 39.7266 5.12222 39.7266 7.06384C39.7266 9.00547 41.3006 10.5795 43.2422 10.5795Z" fill="currentColor"/>
            <path d="M43.2422 56.4518C45.1838 56.4518 46.7578 54.8778 46.7578 52.9362C46.7578 50.9945 45.1838 49.4205 43.2422 49.4205C41.3006 49.4205 39.7266 50.9945 39.7266 52.9362C39.7266 54.8778 41.3006 56.4518 43.2422 56.4518Z" fill="currentColor"/>
            <path d="M16.7578 10.5795C18.6994 10.5795 20.2734 9.00547 20.2734 7.06384C20.2734 5.12222 18.6994 3.54822 16.7578 3.54822C14.8162 3.54822 13.2422 5.12222 13.2422 7.06384C13.2422 9.00547 14.8162 10.5795 16.7578 10.5795Z" fill="currentColor"/>
            <path d="M10.3222 31.7578H15.8181C16.7889 31.7578 17.5759 30.9708 17.5759 30C17.5759 29.0292 16.7889 28.2422 15.8181 28.2422H10.3222C10.4674 28.8042 10.5447 29.3932 10.5447 30C10.5447 30.6068 10.4674 31.1958 10.3222 31.7578ZM49.6735 28.2422H44.1775C43.2067 28.2422 42.4197 29.0292 42.4197 30C42.4197 30.9708 43.2067 31.7578 44.1775 31.7578H49.6735C49.5283 31.1958 49.451 30.6068 49.451 30C49.451 29.3932 49.5283 28.8042 49.6735 28.2422ZM22.9776 42.1594C22.1368 41.6738 21.0618 41.9619 20.5764 42.8027L18.6367 46.1624C19.7838 46.4822 20.8308 47.088 21.6796 47.9231L23.6209 44.5605C24.1065 43.7198 23.8184 42.6448 22.9776 42.1594ZM37.086 19.4781C37.6935 19.4781 38.2844 19.1629 38.6099 18.5989L41.3589 13.8375C40.2119 13.5177 39.1649 12.9118 38.316 12.0768L35.5654 16.8411C35.0799 17.6818 35.3679 18.7569 36.2088 19.2423C36.4753 19.3968 36.7779 19.4781 37.086 19.4781ZM39.4192 42.8027C38.9337 41.9619 37.8588 41.6741 37.0181 42.1594C36.1772 42.6448 35.8892 43.7198 36.3747 44.5605L38.316 47.9231C39.1649 47.0881 40.2119 46.4822 41.3589 46.1624L39.4192 42.8027ZM21.6796 12.0768C20.8307 12.9118 19.7837 13.5177 18.6367 13.8375L21.3857 18.5989C21.7113 19.1629 22.3021 19.4781 22.9096 19.4781C23.2079 19.4781 23.5101 19.4021 23.7869 19.2423C24.6277 18.7569 24.9158 17.6818 24.4302 16.8411L21.6796 12.0768ZM29.9978 7.03125C29.027 7.03125 28.24 6.24422 28.24 5.27344V1.75781C28.24 0.787031 29.027 0 29.9978 0C30.9686 0 31.7556 0.787031 31.7556 1.75781V5.27344C31.7556 6.24422 30.9686 7.03125 29.9978 7.03125ZM29.9978 16.4062C29.027 16.4062 28.24 15.6192 28.24 14.6484V11.1328C28.24 10.162 29.027 9.375 29.9978 9.375C30.9686 9.375 31.7556 10.162 31.7556 11.1328V14.6484C31.7556 15.6192 30.9686 16.4062 29.9978 16.4062ZM29.9978 60C29.027 60 28.24 59.213 28.24 58.2422V54.7266C28.24 53.7558 29.027 52.9688 29.9978 52.9688C30.9686 52.9688 31.7556 53.7558 31.7556 54.7266V58.2422C31.7556 59.213 30.9686 60 29.9978 60ZM29.9978 50.625C29.027 50.625 28.24 49.838 28.24 48.8672V45.3516C28.24 44.3808 29.027 43.5938 29.9978 43.5938C30.9686 43.5938 31.7556 44.3808 31.7556 45.3516V48.8672C31.7556 49.838 30.9686 50.625 29.9978 50.625ZM8.58239 19.3948C8.28415 19.3948 7.98192 19.3188 7.70513 19.159L4.66059 17.4012C3.81977 16.9158 3.53173 15.8407 4.01723 15C4.50274 14.1592 5.57747 13.871 6.41841 14.3566L9.46294 16.1145C10.3038 16.5998 10.5918 17.6749 10.1063 18.5156C9.78063 19.0795 9.18977 19.3948 8.58239 19.3948ZM16.7014 24.0823C16.4031 24.0823 16.1009 24.0063 15.8241 23.8465L12.7796 22.0887C11.9388 21.6033 11.6507 20.5282 12.1362 19.6875C12.6216 18.8467 13.6965 18.5585 14.5374 19.0441L17.5819 20.802C18.4227 21.2873 18.7108 22.3624 18.2253 23.2031C17.8997 23.767 17.3089 24.0823 16.7014 24.0823ZM54.4546 45.8791C54.1564 45.8791 53.8542 45.8032 53.5774 45.6434L50.5328 43.8855C49.692 43.4002 49.404 42.3251 49.8895 41.4844C50.375 40.6436 51.4498 40.3554 52.2906 40.841L55.3352 42.5988C56.176 43.0842 56.464 44.1593 55.9785 45C55.653 45.5639 55.0621 45.8791 54.4546 45.8791ZM46.3356 41.1916C46.0374 41.1916 45.7352 41.1157 45.4584 40.9559L42.4138 39.198C41.573 38.7127 41.285 37.6376 41.7705 36.7969C42.2559 35.9561 43.3308 35.668 44.1717 36.1535L47.2162 37.9113C48.057 38.3967 48.3451 39.4718 47.8595 40.3125C47.534 40.8764 46.9431 41.1916 46.3356 41.1916ZM5.54102 45.8791C4.93352 45.8791 4.34266 45.5639 4.01712 45C3.53161 44.1593 3.81966 43.0842 4.66048 42.5988L7.70501 40.841C8.54583 40.3556 9.62079 40.6436 10.1062 41.4844C10.5917 42.3251 10.3036 43.4002 9.46282 43.8855L6.41829 45.6434C6.15173 45.7978 5.84911 45.8792 5.54102 45.8791ZM13.66 41.1916C13.0525 41.1916 12.4616 40.8764 12.1361 40.3125C11.6506 39.4718 11.9386 38.3967 12.7795 37.9113L15.824 36.1535C16.6648 35.6682 17.7398 35.9561 18.2252 36.7969C18.7107 37.6376 18.4226 38.7127 17.5818 39.198L14.5373 40.9559C14.2707 41.1103 13.9681 41.1917 13.66 41.1916ZM51.4133 19.3948C50.8058 19.3948 50.2149 19.0795 49.8893 18.5156C49.4038 17.6749 49.6919 16.5998 50.5327 16.1145L53.5772 14.3566C54.4179 13.8713 55.493 14.1592 55.9784 15C56.4639 15.8407 56.1759 16.9158 55.3351 17.4012L52.2905 19.159C52.024 19.3135 51.7213 19.3948 51.4133 19.3948ZM43.2943 24.0823C42.6868 24.0823 42.0959 23.767 41.7704 23.2031C41.2849 22.3624 41.5729 21.2873 42.4137 20.802L45.4583 19.0441C46.299 18.5588 47.3742 18.8467 47.8594 19.6875C48.3449 20.5282 48.0569 21.6033 47.2161 22.0887L44.1715 23.8465C43.905 24.001 43.6024 24.0823 43.2943 24.0823Z" fill="currentColor"/>
        </g>
        <defs>
            <clipPath id="clip0_336_4448">
                <rect width="60" height="60" fill="white"/>
            </clipPath>
        </defs>
    </symbol>

    <symbol id="socialVk" viewBox="0 0 56 56" fill="none">
        <path d="M28.7738 37.625C19.5062 37.625 14.2203 31.0559 14 20.125H18.6423C18.7947 28.148 22.217 31.5464 24.9279 32.2471V20.125H29.2992V27.0444C31.9761 26.7466 34.7882 23.5935 35.737 20.125H40.1083C39.3798 24.3993 36.3301 27.5524 34.1615 28.8487C36.3301 29.8998 39.8035 32.65 41.125 37.625H36.3132C35.2797 34.2967 32.7046 31.7216 29.2992 31.3712V37.625H28.7738Z" fill="currentColor"/>
    </symbol>
    
    <symbol id="socialTt" viewBox="0 0 56 56" fill="none">
        <g clip-path="url(#clip0_336_4617)">
            <path d="M37.9118 23.4658C36.7133 23.4658 35.6075 23.0688 34.7196 22.399C33.7011 21.6312 32.9694 20.5049 32.711 19.2068C32.647 18.886 32.6126 18.555 32.6093 18.2158H29.1857V27.5707L29.1816 32.6947C29.1816 34.0647 28.2895 35.2262 27.0529 35.6347C26.694 35.7533 26.3064 35.8095 25.9028 35.7873C25.3877 35.759 24.9049 35.6036 24.4853 35.3526C23.5924 34.8185 22.987 33.8497 22.9706 32.7415C22.9448 31.0094 24.3451 29.5972 26.0759 29.5972C26.4176 29.5972 26.7457 29.653 27.0529 29.7543V27.1974V26.2783C26.7289 26.2303 26.3991 26.2053 26.0657 26.2053C24.1712 26.2053 22.3993 26.9928 21.1327 28.4115C20.1754 29.4836 19.6012 30.8515 19.5126 32.2858C19.3965 34.1701 20.086 35.9612 21.4231 37.2828C21.6196 37.4768 21.8259 37.6568 22.0416 37.8229C23.188 38.7052 24.5895 39.1834 26.0657 39.1834C26.3991 39.1834 26.7289 39.1588 27.0529 39.1108C28.4319 38.9066 29.7042 38.2753 30.7082 37.2828C31.942 36.0634 32.6237 34.4445 32.631 32.7214L32.6134 25.0695C33.202 25.5236 33.8455 25.8993 34.5362 26.1909C35.6104 26.6441 36.7494 26.8738 37.9216 26.8734V24.3874V23.465C37.9225 23.4658 37.9126 23.4658 37.9118 23.4658Z" fill="currentColor"/>
        </g>
        <defs>
            <clipPath id="clip0_336_4617">
                <rect width="21" height="21" fill="white" transform="translate(18.2031 18.2002)"/>
            </clipPath>
        </defs>
    </symbol>
    
    <symbol id="socialYt" viewBox="0 0 56 56" fill="none">
        <g clip-path="url(#clip0_336_4622)">
            <path d="M42.7669 21.2351C42.412 19.9422 41.3717 18.923 40.0524 18.5749C37.6422 17.9287 28.0012 17.9287 28.0012 17.9287C28.0012 17.9287 18.3606 17.9287 15.9504 18.5504C14.6565 18.8982 13.5908 19.9424 13.2358 21.2351C12.6016 23.5966 12.6016 28.494 12.6016 28.494C12.6016 28.494 12.6016 33.416 13.2358 35.7528C13.5911 37.0456 14.6311 38.0647 15.9506 38.4129C18.386 39.0592 28.0016 39.0592 28.0016 39.0592C28.0016 39.0592 37.6422 39.0592 40.0524 38.4376C41.3719 38.0896 42.412 37.0704 42.7673 35.7777C43.4014 33.416 43.4014 28.5188 43.4014 28.5188C43.4014 28.5188 43.4268 23.5966 42.7669 21.2351ZM24.9317 33.0183V23.9696L32.9487 28.494L24.9317 33.0183Z" fill="currentColor"/>
        </g>
        <defs>
            <clipPath id="clip0_336_4622">
                <rect width="30.8" height="21" fill="white" transform="translate(12.6016 18.2002)"/>
            </clipPath>
        </defs>
    </symbol>

    <symbol id="angle1" viewBox="0 0 24 24" fill="none">
        <path d="M9 4L16.5 11.5L9 19" stroke="currentColor" stroke-width="2" stroke-linecap="round" stroke-linejoin="round"/>
    </symbol>

    <symbol id="day" viewBox="0 0 24 24" fill="none">
        <g clip-path="url(#clip0_336_4464)">
            <path d="M12 18.1818C15.4088 18.1818 18.1821 15.4087 18.1821 12.0001C18.1821 8.59135 15.4088 5.81818 12 5.81818C8.59149 5.81818 5.81847 8.59135 5.81847 12.0001C5.81847 15.4087 8.59149 18.1818 12 18.1818ZM12 3.63636C12.6024 3.63636 13.0909 3.14793 13.0909 2.54545V1.09091C13.0909 0.488436 12.6024 0 12 0C11.3975 0 10.9091 0.488436 10.9091 1.09091V2.54545C10.9091 3.14793 11.3975 3.63636 12 3.63636ZM12 24C12.6024 24 13.0909 23.5116 13.0909 22.9091V21.4545C13.0909 20.8521 12.6024 20.3636 12 20.3636C11.3975 20.3636 10.9091 20.8521 10.9091 21.4545V22.9091C10.9091 23.5116 11.3975 24 12 24ZM20.3636 12C20.3636 12.6025 20.8521 13.0909 21.4545 13.0909H22.9091C23.5115 13.0909 24 12.6025 24 12C24 11.3975 23.5115 10.9091 22.9091 10.9091H21.4545C20.8521 10.9091 20.3636 11.3975 20.3636 12ZM1.09091 13.0909H2.54531C3.14785 13.0909 3.63622 12.6025 3.63622 12C3.63622 11.3975 3.14785 10.9091 2.54531 10.9091H1.09091C0.488509 10.9091 0 11.3975 0 12C0 12.6025 0.488509 13.0909 1.09091 13.0909ZM18.6854 6.40553C18.9647 6.40553 19.2439 6.29898 19.4568 6.08589L20.4852 5.05731C20.9112 4.63127 20.9112 3.94058 20.4852 3.51455C20.0591 3.08851 19.3684 3.08858 18.9423 3.51469L17.9139 4.54327C17.4879 4.96924 17.488 5.66007 17.914 6.08604C18.0152 6.18747 18.1355 6.26792 18.2678 6.32275C18.4002 6.37758 18.5421 6.40571 18.6854 6.40553ZM5.05753 20.4852L6.08596 19.4567C6.512 19.0307 6.512 18.34 6.08596 17.914C5.66 17.4879 4.96924 17.4879 4.5432 17.914L3.51476 18.9425C3.08873 19.3684 3.08873 20.0592 3.51476 20.4852C3.61593 20.5867 3.73616 20.6672 3.86854 20.722C4.00092 20.7768 4.14283 20.8049 4.28611 20.8047C4.4294 20.8049 4.57132 20.7768 4.70371 20.722C4.8361 20.6672 4.95634 20.5867 5.05753 20.4852ZM19.7137 20.8047C19.9929 20.8047 20.2721 20.6983 20.4852 20.4852C20.9111 20.0593 20.9111 19.3686 20.4852 18.9425L19.4567 17.914C19.0308 17.488 18.34 17.4879 17.914 17.9139C17.4879 18.3399 17.4879 19.0306 17.9139 19.4567L18.9423 20.4852C19.0435 20.5867 19.1638 20.6671 19.2961 20.722C19.4285 20.7768 19.5705 20.8049 19.7137 20.8047ZM4.54313 6.08604C4.64431 6.18749 4.76454 6.26795 4.89691 6.32279C5.02928 6.37763 5.17119 6.40577 5.31447 6.4056C5.59367 6.4056 5.87287 6.29905 6.08589 6.08611C6.51185 5.66015 6.51185 4.96938 6.08589 4.54327L5.05753 3.51476C4.63156 3.0888 3.94073 3.08873 3.51476 3.51476C3.08873 3.94073 3.08865 4.63142 3.51469 5.05753L4.54313 6.08604Z" fill="currentColor"/>
        </g>
        <defs>
            <clipPath id="clip0_336_4464">
                <rect width="24" height="24" fill="currentColor"/>
            </clipPath>
        </defs>
    </symbol>

    <symbol id="night" viewBox="0 0 24 24" fill="none">
        <path d="M20.7271 3.49498C20.8927 3.39916 21.0302 3.26147 21.1257 3.09573C21.2213 2.92998 21.2716 2.74202 21.2716 2.55069C21.2716 2.35936 21.2213 2.1714 21.1257 2.00566C21.0302 1.83991 20.8927 1.70222 20.7271 1.6064C18.9104 0.555491 16.8353 0 14.726 0C8.10954 0 2.72656 5.38327 2.72656 12.0001C2.72656 18.6169 8.10954 24 14.726 24C16.8351 24 18.9103 23.4445 20.7271 22.3937C20.8927 22.2979 21.0302 22.1602 21.1258 21.9944C21.2214 21.8287 21.2717 21.6407 21.2717 21.4494C21.2717 21.258 21.2214 21.0701 21.1258 20.9043C21.0302 20.7386 20.8927 20.6009 20.7271 20.5051C17.6987 18.7533 15.8175 15.4944 15.8175 12.0002C15.8175 8.50567 17.6987 5.24676 20.7271 3.49498Z" fill="currentColor"/>
    </symbol>

    <symbol id="flag" viewBox="0 0 32 32" fill="none">
        <path d="M9.59866 2.74301V19.2002H25.1415C25.9004 19.2002 26.5129 18.5876 26.5129 17.8287V4.11444C26.5129 3.35558 25.9004 2.74301 25.1415 2.74301H9.59866ZM5.48438 2.74301V29.2573C5.48438 29.621 5.62886 29.9699 5.88606 30.227C6.14325 30.4842 6.49208 30.6287 6.8558 30.6287C7.21953 30.6287 7.56836 30.4842 7.82555 30.227C8.08274 29.9699 8.22723 29.621 8.22723 29.2573V2.74301C8.22723 2.37929 8.08274 2.03046 7.82555 1.77326C7.56836 1.51607 7.21953 1.37158 6.8558 1.37158C6.49208 1.37158 6.14325 1.51607 5.88606 1.77326C5.62886 2.03046 5.48438 2.37929 5.48438 2.74301Z" fill="currentColor"/>
    </symbol>

    <symbol id="calendar" viewBox="0 0 32 32" fill="none">
        <path d="M30.6321 6.40015C30.6321 3.62987 28.3739 1.37158 25.6036 1.37158H6.40357C5.07065 1.374 3.79302 1.90457 2.8505 2.84709C1.90799 3.7896 1.37742 5.06724 1.375 6.40015V9.60015H30.6321V6.40015ZM8.23214 6.8573C7.47329 6.8573 6.86071 6.24472 6.86071 5.48587C6.86071 4.72701 7.47329 4.11444 8.23214 4.11444C8.991 4.11444 9.60357 4.72701 9.60357 5.48587C9.60357 6.24472 8.991 6.8573 8.23214 6.8573ZM23.775 6.8573C23.0161 6.8573 22.4036 6.24472 22.4036 5.48587C22.4036 4.72701 23.0161 4.11444 23.775 4.11444C24.5339 4.11444 25.1464 4.72701 25.1464 5.48587C25.1464 6.24472 24.5339 6.8573 23.775 6.8573ZM30.6321 25.6002V12.343H1.375V25.6002C1.375 28.3704 3.63329 30.6287 6.40357 30.6287H25.6036C28.3739 30.6287 30.6321 28.3704 30.6321 25.6002ZM9.60357 26.9716H7.775C7.01614 26.9716 6.40357 26.359 6.40357 25.6002C6.40357 24.8413 7.01614 24.2287 7.775 24.2287H9.60357C10.3624 24.2287 10.975 24.8413 10.975 25.6002C10.975 26.359 10.3624 26.9716 9.60357 26.9716ZM9.60357 22.4002H7.775C7.01614 22.4002 6.40357 21.7876 6.40357 21.0287C6.40357 20.2699 7.01614 19.6573 7.775 19.6573H9.60357C10.3624 19.6573 10.975 20.2699 10.975 21.0287C10.975 21.7876 10.3624 22.4002 9.60357 22.4002ZM9.60357 17.8287H7.775C7.01614 17.8287 6.40357 17.2162 6.40357 16.4573C6.40357 15.6984 7.01614 15.0859 7.775 15.0859H9.60357C10.3624 15.0859 10.975 15.6984 10.975 16.4573C10.975 17.2162 10.3624 17.8287 9.60357 17.8287ZM16.9179 26.9716H15.0893C14.3304 26.9716 13.7179 26.359 13.7179 25.6002C13.7179 24.8413 14.3304 24.2287 15.0893 24.2287H16.9179C17.6767 24.2287 18.2893 24.8413 18.2893 25.6002C18.2893 26.359 17.6767 26.9716 16.9179 26.9716ZM16.9179 22.4002H15.0893C14.3304 22.4002 13.7179 21.7876 13.7179 21.0287C13.7179 20.2699 14.3304 19.6573 15.0893 19.6573H16.9179C17.6767 19.6573 18.2893 20.2699 18.2893 21.0287C18.2893 21.7876 17.6767 22.4002 16.9179 22.4002ZM16.9179 17.8287H15.0893C14.3304 17.8287 13.7179 17.2162 13.7179 16.4573C13.7179 15.6984 14.3304 15.0859 15.0893 15.0859H16.9179C17.6767 15.0859 18.2893 15.6984 18.2893 16.4573C18.2893 17.2162 17.6767 17.8287 16.9179 17.8287ZM24.2321 26.9716H22.4036C21.6447 26.9716 21.0321 26.359 21.0321 25.6002C21.0321 24.8413 21.6447 24.2287 22.4036 24.2287H24.2321C24.991 24.2287 25.6036 24.8413 25.6036 25.6002C25.6036 26.359 24.991 26.9716 24.2321 26.9716ZM24.2321 22.4002H22.4036C21.6447 22.4002 21.0321 21.7876 21.0321 21.0287C21.0321 20.2699 21.6447 19.6573 22.4036 19.6573H24.2321C24.991 19.6573 25.6036 20.2699 25.6036 21.0287C25.6036 21.7876 24.991 22.4002 24.2321 22.4002ZM24.2321 17.8287H22.4036C21.6447 17.8287 21.0321 17.2162 21.0321 16.4573C21.0321 15.6984 21.6447 15.0859 22.4036 15.0859H24.2321C24.991 15.0859 25.6036 15.6984 25.6036 16.4573C25.6036 17.2162 24.991 17.8287 24.2321 17.8287Z" fill="currentColor"/>
    </symbol>

    <symbol id="search" viewBox="0 0 32 32" fill="none">
        <path d="M20.3759 4.62906C16.0349 0.28712 8.97111 0.288948 4.63009 4.62906C0.289971 8.96918 0.289971 16.0329 4.63009 20.3731C8.97203 24.7159 16.0358 24.7132 20.3759 20.3731C24.716 16.0329 24.716 8.97009 20.3759 4.62906ZM6.5702 18.4348C3.29889 15.1625 3.29889 9.83958 6.5702 6.56735C9.84151 3.29695 15.1663 3.29786 18.4367 6.56735C21.7071 9.83958 21.7071 15.1635 18.4367 18.4348C15.1654 21.707 9.84243 21.7052 6.5702 18.4348ZM22.2593 20.3228C21.6886 21.0401 21.0384 21.6903 20.3211 22.2611L28.2845 30.2245C28.4116 30.352 28.5627 30.4531 28.729 30.5222C28.8953 30.5912 29.0736 30.6267 29.2536 30.6267C29.4337 30.6267 29.612 30.5912 29.7783 30.5222C29.9446 30.4531 30.0956 30.352 30.2228 30.2245C30.7622 29.6851 30.7622 28.8165 30.2228 28.2862L22.2593 20.3228Z" fill="currentColor"/>
    </symbol>

    <symbol id="docPdf" viewBox="0 0 40 40" fill="none">
        <path d="M34.3828 11.0469V35.1797C34.3828 37.8438 32.2266 40 29.5625 40H10.4375C7.77344 40 5.61719 37.8438 5.61719 35.1797V4.82031C5.61719 2.15625 7.77344 0 10.4375 0H23.3359L34.3828 11.0469Z" fill="#F15642"/>
        <path d="M34.3828 11.0469H25.3281C24.2266 11.0469 23.3359 10.1562 23.3359 9.05469V0L34.3828 11.0469Z" fill="#FFBDC2"/>
        <path d="M17.0234 21.5625C17.0234 23.2266 16.1406 24.1484 14.5859 24.1484H13.6328V26.9375H12.4922V19H14.5859C16.1406 19 17.0234 19.9453 17.0234 21.5625ZM15.8516 21.5625C15.8516 20.5859 15.4297 20.0859 14.5703 20.0859H13.6328V23.0547H14.5703C15.4375 23.0625 15.8516 22.5859 15.8516 21.5625ZM17.9922 19H19.9609C21.5 19 22.4062 19.9062 22.4062 21.4687V24.4375C22.4062 26.0078 21.5 26.9297 19.9688 26.9297H17.9844V19H17.9922ZM19.9766 25.8437C20.7891 25.8437 21.2578 25.3594 21.2578 24.4141V21.4922C21.2578 20.5625 20.8047 20.0859 19.9766 20.0859H19.1406V25.8437H19.9766ZM24.9141 20.0781V22.4453H27.3047V23.4844H24.9141V26.9297H23.7734V19H27.5156V20.0781H24.9141Z" fill="white"/>
    </symbol>

    <symbol id="markPositive" viewBox="0 0 32 32" fill="none">
        <circle cx="16" cy="16" r="16" fill="#FFBDC2"/>
        <path d="M24.2197 7.56236C24.1243 7.46682 24.011 7.39103 23.8862 7.33932C23.7615 7.2876 23.6278 7.26099 23.4928 7.26099C23.3578 7.26099 23.2241 7.2876 23.0994 7.33932C22.9747 7.39103 22.8614 7.46682 22.766 7.56236L13.0905 17.2446L9.23681 13.3909C8.85281 13.0069 8.1671 13.0069 7.7831 13.3909L5.28024 15.9006C5.18404 15.9957 5.10766 16.1089 5.05553 16.2336C5.0034 16.3584 4.97656 16.4923 4.97656 16.6275C4.97656 16.7627 5.0034 16.8966 5.05553 17.0214C5.10766 17.1462 5.18404 17.2593 5.28024 17.3544L12.3637 24.4378C12.5625 24.6367 12.8231 24.7395 13.0905 24.7395C13.3511 24.7395 13.6117 24.6367 13.8174 24.4378L26.7225 11.5258C27.1271 11.1281 27.1271 10.4766 26.7225 10.0721L24.2197 7.56236Z" fill="white"/>
    </symbol>
    
    <symbol id="markNegative" viewBox="0 0 32 32" fill="none">
        <circle cx="16" cy="16" r="16" fill="#3C4659" fill-opacity="0.6"/>
        <g clip-path="url(#clip0_336_6190)">
            <path d="M23.1115 11.4012L20.6018 8.8869C20.5382 8.82315 20.4627 8.77257 20.3795 8.73806C20.2964 8.70355 20.2072 8.68579 20.1172 8.68579C20.0272 8.68579 19.938 8.70355 19.8549 8.73806C19.7717 8.77257 19.6962 8.82315 19.6326 8.8869L16.0029 12.5212L12.3686 8.8869C12.305 8.82321 12.2295 8.77268 12.1464 8.7382C12.0632 8.70373 11.9741 8.68598 11.8841 8.68598C11.7941 8.68598 11.7049 8.70373 11.6218 8.7382C11.5386 8.77268 11.4631 8.82321 11.3995 8.8869L8.88979 11.4012C8.62007 11.6709 8.62007 12.1006 8.88979 12.3703L12.5195 16L8.88979 19.6298C8.62007 19.8949 8.62007 20.3292 8.88979 20.5989L11.4041 23.1132C11.6646 23.3738 12.088 23.3888 12.3732 23.1132L16.0029 19.4835L19.6281 23.1132C19.6917 23.1769 19.7672 23.2274 19.8504 23.2619C19.9335 23.2964 20.0226 23.3141 20.1126 23.3141C20.2027 23.3141 20.2918 23.2964 20.3749 23.2619C20.4581 23.2274 20.5336 23.1769 20.5972 23.1132L23.1115 20.5989C23.3766 20.3292 23.3766 19.8949 23.1115 19.6298L19.4818 16L23.1115 12.3703C23.3766 12.1006 23.3766 11.6709 23.1115 11.4012Z" fill="white"/>
        </g>
        <defs>
            <clipPath id="clip0_336_6190">
                <rect width="16" height="16" fill="white" transform="translate(8 8)"/>
            </clipPath>
        </defs>
    </symbol>

    <symbol id="livingHotel" viewBox="0 0 40 40" fill="none">
        <g clip-path="url(#clip0_336_6028)">
            <path d="M21.1719 31.7969H23.5156V40H21.1719V31.7969Z" fill="currentColor"/>
            <path d="M30.5469 25.9375H9.45312C8.80594 25.9375 8.28125 26.4622 8.28125 27.1094V40H14.1406V31.7969H13.75C13.1028 31.7969 12.5781 31.2722 12.5781 30.625C12.5781 29.9778 13.1028 29.4531 13.75 29.4531H26.25C26.8972 29.4531 27.4219 29.9778 27.4219 30.625C27.4219 31.2722 26.8972 31.7969 26.25 31.7969H25.8594V40H31.7188V27.1094C31.7188 26.4622 31.1941 25.9375 30.5469 25.9375Z" fill="currentColor"/>
            <path d="M16.4844 31.7969H18.8281V40H16.4844V31.7969ZM16.4844 2.5H4.76562V1.17188C4.76562 0.524687 5.29031 0 5.9375 0H15.3125C15.9597 0 16.4844 0.524687 16.4844 1.17188V2.5ZM35.2344 2.5H23.5156V1.17188C23.5156 0.524687 24.0403 0 24.6875 0H34.0625C34.7097 0 35.2344 0.524687 35.2344 1.17188V2.5ZM17.6562 4.84375H3.59375C2.94656 4.84375 2.42188 5.36844 2.42188 6.01562V37.6562H1.17188C0.524687 37.6562 0 38.1809 0 38.8281C0 39.4753 0.524687 40 1.17188 40H5.9375V27.1094C5.9375 25.1709 7.51461 23.5938 9.45312 23.5938H18.8281V6.01562C18.8281 5.36844 18.3034 4.84375 17.6562 4.84375ZM7.69531 20.0781C7.04812 20.0781 6.52344 19.5534 6.52344 18.9062C6.52344 18.2591 7.04812 17.7344 7.69531 17.7344C8.3425 17.7344 8.86719 18.2591 8.86719 18.9062C8.86719 19.5534 8.3425 20.0781 7.69531 20.0781ZM7.69531 15.3906C7.04812 15.3906 6.52344 14.8659 6.52344 14.2188C6.52344 13.5716 7.04812 13.0469 7.69531 13.0469C8.3425 13.0469 8.86719 13.5716 8.86719 14.2188C8.86719 14.8659 8.3425 15.3906 7.69531 15.3906ZM7.69531 10.7031C7.04812 10.7031 6.52344 10.1784 6.52344 9.53125C6.52344 8.88406 7.04812 8.35938 7.69531 8.35938C8.3425 8.35938 8.86719 8.88406 8.86719 9.53125C8.86719 10.1784 8.3425 10.7031 7.69531 10.7031ZM13.5547 20.0781C12.9075 20.0781 12.3828 19.5534 12.3828 18.9062C12.3828 18.2591 12.9075 17.7344 13.5547 17.7344C14.2019 17.7344 14.7266 18.2591 14.7266 18.9062C14.7266 19.5534 14.2019 20.0781 13.5547 20.0781ZM13.5547 15.3906C12.9075 15.3906 12.3828 14.8659 12.3828 14.2188C12.3828 13.5716 12.9075 13.0469 13.5547 13.0469C14.2019 13.0469 14.7266 13.5716 14.7266 14.2188C14.7266 14.8659 14.2019 15.3906 13.5547 15.3906ZM13.5547 10.7031C12.9075 10.7031 12.3828 10.1784 12.3828 9.53125C12.3828 8.88406 12.9075 8.35938 13.5547 8.35938C14.2019 8.35938 14.7266 8.88406 14.7266 9.53125C14.7266 10.1784 14.2019 10.7031 13.5547 10.7031ZM38.8281 37.6562H37.5781V6.01562C37.5781 5.36844 37.0534 4.84375 36.4062 4.84375H22.3438C21.6966 4.84375 21.1719 5.36844 21.1719 6.01562V23.5938H30.5469C32.4854 23.5938 34.0625 25.1709 34.0625 27.1094V40H38.8281C39.4753 40 40 39.4753 40 38.8281C40 38.1809 39.4753 37.6562 38.8281 37.6562ZM26.4453 20.0781C25.7981 20.0781 25.2734 19.5534 25.2734 18.9062C25.2734 18.2591 25.7981 17.7344 26.4453 17.7344C27.0925 17.7344 27.6172 18.2591 27.6172 18.9062C27.6172 19.5534 27.0925 20.0781 26.4453 20.0781ZM26.4453 15.3906C25.7981 15.3906 25.2734 14.8659 25.2734 14.2188C25.2734 13.5716 25.7981 13.0469 26.4453 13.0469C27.0925 13.0469 27.6172 13.5716 27.6172 14.2188C27.6172 14.8659 27.0925 15.3906 26.4453 15.3906ZM26.4453 10.7031C25.7981 10.7031 25.2734 10.1784 25.2734 9.53125C25.2734 8.88406 25.7981 8.35938 26.4453 8.35938C27.0925 8.35938 27.6172 8.88406 27.6172 9.53125C27.6172 10.1784 27.0925 10.7031 26.4453 10.7031ZM32.3047 20.0781C31.6575 20.0781 31.1328 19.5534 31.1328 18.9062C31.1328 18.2591 31.6575 17.7344 32.3047 17.7344C32.9519 17.7344 33.4766 18.2591 33.4766 18.9062C33.4766 19.5534 32.9519 20.0781 32.3047 20.0781ZM32.3047 15.3906C31.6575 15.3906 31.1328 14.8659 31.1328 14.2188C31.1328 13.5716 31.6575 13.0469 32.3047 13.0469C32.9519 13.0469 33.4766 13.5716 33.4766 14.2188C33.4766 14.8659 32.9519 15.3906 32.3047 15.3906ZM32.3047 10.7031C31.6575 10.7031 31.1328 10.1784 31.1328 9.53125C31.1328 8.88406 31.6575 8.35938 32.3047 8.35938C32.9519 8.35938 33.4766 8.88406 33.4766 9.53125C33.4766 10.1784 32.9519 10.7031 32.3047 10.7031Z" fill="currentColor"/>
        </g>
        <defs>
            <clipPath id="clip0_336_6028">
                <rect width="40" height="40" fill="white"/>
            </clipPath>
        </defs>
    </symbol>

    <symbol id="livingHouse" viewBox="0 0 40 40" fill="none">
        <g clip-path="url(#clip0_336_6014)">
            <path d="M1.18362 21.2971C1.33764 21.2973 1.49017 21.267 1.63245 21.2081C1.77473 21.1491 1.90395 21.0626 2.01265 20.9535L4.10941 18.8547V18.8878L19.3458 3.7492C19.5654 3.53108 19.8623 3.40865 20.1718 3.40863H20.1764C20.3305 3.40924 20.4829 3.44021 20.6249 3.49977C20.767 3.55934 20.8959 3.64632 21.0044 3.75576L35.8102 18.6995V18.6929L37.8889 20.7933C38.3442 21.2533 39.0862 21.2572 39.5463 20.8019C40.0063 20.3465 40.0102 19.6045 39.5548 19.1445L20.9518 0.347598C20.8431 0.23779 20.7139 0.150549 20.5714 0.0908942C20.4289 0.0312394 20.276 0.000348841 20.1216 0L20.1188 0C19.9648 2.06792e-06 19.8124 0.0303499 19.6701 0.089309C19.5279 0.148268 19.3986 0.234683 19.2898 0.343613L11.7247 7.91592V4.88637C11.7247 4.34782 11.2881 3.91124 10.7496 3.91124H6.25844C5.71989 3.91124 5.28331 4.34782 5.28331 4.88637V14.3635L0.35459 19.2969C-0.102858 19.7548 -0.102545 20.4968 0.355371 20.9542C0.464045 21.0631 0.593158 21.1494 0.735294 21.2083C0.877431 21.2671 1.02979 21.2973 1.18362 21.2971ZM13.6633 21.3557H26.3329V31.6562H13.6633V21.3557Z" fill="currentColor"/>
            <path d="M38.8118 37.6561H35.8095V22.0296L20.1647 6.23914L4.10883 22.192V37.6561H1.19929C0.552061 37.6561 0.0273438 38.1809 0.0273438 38.8281C0.0273438 39.4753 0.552061 40 1.19929 40H38.8118C39.459 40 39.9837 39.4753 39.9837 38.8281C39.9837 38.1809 39.4591 37.6561 38.8118 37.6561ZM28.8425 34.0001H11.1523C10.5051 34.0001 9.98041 33.4754 9.98041 32.8281C9.98041 32.1809 10.5051 31.6562 11.1523 31.6562H11.3188V20.1838C11.3188 19.5365 11.8435 19.0118 12.4907 19.0118H27.5041C28.1514 19.0118 28.6761 19.5365 28.6761 20.1838V31.6562H28.8425C29.4897 31.6562 30.0144 32.1809 30.0144 32.8281C30.0144 33.4754 29.4897 34.0001 28.8425 34.0001Z" fill="currentColor"/>
        </g>
        <defs>
            <clipPath id="clip0_336_6014">
                <rect width="40" height="40" fill="white"/>
            </clipPath>
        </defs>
    </symbol>

    <symbol id="livingCamp" viewBox="0 0 40 40" fill="none">
        <path d="M35.3125 34.4531V35.625C35.3125 36.2722 35.8372 36.7969 36.4844 36.7969C37.1316 36.7969 37.6562 36.2722 37.6562 35.625V34.4531H35.3125ZM12.8906 21.1719H0V23.5156H18.75V13.75C18.75 13.1028 19.2747 12.5781 19.9219 12.5781H27.7344C28.3816 12.5781 28.9062 13.1028 28.9062 13.75V23.5156H33.5938V12.5781C33.5938 9.9893 31.4951 7.89062 28.9062 7.89062H4.6875C2.09867 7.89062 0 9.9893 0 12.5781H12.8906C13.5378 12.5781 14.0625 13.1028 14.0625 13.75V20C14.0625 20.6472 13.5378 21.1719 12.8906 21.1719ZM0 25.8594V30.9375C0 31.5847 0.524687 32.1094 1.17188 32.1094H2.22828C2.69672 29.2337 5.19703 27.0312 8.20312 27.0312C11.2092 27.0312 13.7095 29.2337 14.178 32.1094H18.75V25.8594H0Z" fill="currentColor"/>
        <path d="M21.0938 14.9219H26.5625V32.1094H21.0938V14.9219ZM7.03125 14.9219H11.7188V18.8281H7.03125V14.9219ZM0 14.9219H4.6875V18.8281H0V14.9219ZM38.8281 29.7656H33.5938V25.8594H28.9062V32.1094H38.8281C39.4753 32.1094 40 31.5847 40 30.9375C40 30.2903 39.4753 29.7656 38.8281 29.7656ZM8.20312 36.7969C6.15688 36.7969 4.49219 35.1322 4.49219 33.0859C4.49219 31.0397 6.15688 29.375 8.20312 29.375C10.2494 29.375 11.9141 31.0397 11.9141 33.0859C11.9141 35.1322 10.2494 36.7969 8.20312 36.7969ZM14.3229 3.20312H19.2708V5.54688H14.3229V3.20312ZM26.5625 5.54688C26.5625 4.25242 25.5132 3.20312 24.2188 3.20312H21.6146V5.54688H26.5625ZM9.375 3.20312C8.08055 3.20312 7.03125 4.25242 7.03125 5.54688H11.9791V3.20312H9.375Z" fill="currentColor"/>
    </symbol>

</svg>
